<?xml version="1.0" encoding="UTF-8" standalone="no"?>
<!-- Created with Inkscape (http://www.inkscape.org/) -->
<svg
   xmlns:dc="http://purl.org/dc/elements/1.1/"
   xmlns:cc="http://creativecommons.org/ns#"
   xmlns:rdf="http://www.w3.org/1999/02/22-rdf-syntax-ns#"
   xmlns:svg="http://www.w3.org/2000/svg"
   xmlns="http://www.w3.org/2000/svg"
   xmlns:sodipodi="http://sodipodi.sourceforge.net/DTD/sodipodi-0.dtd"
   xmlns:inkscape="http://www.inkscape.org/namespaces/inkscape"
   id="svg2403"
   sodipodi:version="0.32"
   inkscape:version="0.46"
   width="96"
   height="76.620003"
   xml:space="preserve"
   sodipodi:docname="Cooler Master Logo.svg"
   version="1.0"
   inkscape:output_extension="org.inkscape.output.svg.inkscape"><metadata
     id="metadata2408"><rdf:RDF><cc:Work
         rdf:about=""><dc:format>image/svg+xml</dc:format><dc:type
           rdf:resource="http://purl.org/dc/dcmitype/StillImage" /></cc:Work></rdf:RDF></metadata><defs
     id="defs2406"><inkscape:perspective
       sodipodi:type="inkscape:persp3d"
       inkscape:vp_x="0 : 526.18109 : 1"
       inkscape:vp_y="0 : 1000 : 0"
       inkscape:vp_z="744.09448 : 526.18109 : 1"
       inkscape:persp3d-origin="372.04724 : 350.78739 : 1"
       id="perspective2410" /></defs><sodipodi:namedview
     inkscape:window-height="974"
     inkscape:window-width="1264"
     inkscape:pageshadow="2"
     inkscape:pageopacity="0.0"
     guidetolerance="10.0"
     gridtolerance="10.0"
     objecttolerance="10.0"
     borderopacity="1.0"
     bordercolor="#666666"
     pagecolor="#ffffff"
     id="base"
     showgrid="false"
     inkscape:zoom="7.0241953"
     inkscape:cx="66.253539"
     inkscape:cy="32.148824"
     inkscape:window-x="0"
     inkscape:window-y="14"
     inkscape:current-layer="g2412" /><g
     id="g2412"
     inkscape:groupmode="layer"
     inkscape:label="file1256638007471"
     transform="matrix(1.25,0,0,-1.25,0,1052.3625)"><path
       d="M 71.698,836.1881 L 71.698,835.7461 L 70.846,835.7461 L 70.846,834.4221 L 71.698,834.4221 L 71.698,833.9811 L 70.846,833.9811 L 70.846,832.3421 L 70.342,832.3421 L 70.342,836.1881 L 71.698,836.1881 z M 71.698,837.7631 C 69.776,837.7631 68.199,836.1881 68.199,834.2641 C 68.199,833.3511 68.577,832.4681 69.239,831.8061 C 69.902,831.1441 70.783,830.7971 71.698,830.7971 L 71.698,831.1441 C 70.878,831.1441 70.059,831.4591 69.492,832.0581 C 68.892,832.6581 68.546,833.4451 68.546,834.2641 C 68.546,835.1161 68.892,835.9041 69.492,836.5021 C 70.059,837.1001 70.878,837.4171 71.698,837.4171 L 71.698,837.7631 z M 71.698,833.9811 L 71.698,834.4221 L 72.044,834.4221 C 72.297,834.4221 72.486,834.4851 72.643,834.5791 C 72.769,834.6751 72.833,834.8321 72.833,835.0851 C 72.833,835.3681 72.738,835.5571 72.549,835.6511 C 72.423,835.7141 72.297,835.7461 72.107,835.7461 L 71.698,835.7461 L 71.698,836.1881 L 72.107,836.1881 C 72.391,836.1881 72.643,836.1561 72.833,836.0621 C 73.179,835.9041 73.368,835.5891 73.368,835.1471 C 73.368,834.9261 73.338,834.7371 73.242,834.5791 C 73.148,834.4541 72.99,834.3281 72.833,834.2331 C 72.99,834.1701 73.085,834.0751 73.179,833.9811 C 73.242,833.8861 73.273,833.7291 73.305,833.5081 L 73.305,833.0031 C 73.305,832.8461 73.338,832.7511 73.338,832.6581 C 73.368,832.5321 73.431,832.4681 73.526,832.4361 L 73.526,832.3421 L 72.864,832.3421 C 72.864,832.3741 72.833,832.4361 72.833,832.4681 C 72.833,832.5321 72.833,832.6251 72.801,832.7841 L 72.769,833.4141 C 72.769,833.6661 72.675,833.8231 72.486,833.9181 C 72.391,833.9811 72.233,833.9811 72.044,833.9811 L 71.698,833.9811 z M 71.698,830.7971 C 72.643,830.7971 73.526,831.1441 74.156,831.8061 C 74.818,832.4681 75.197,833.3511 75.197,834.2641 C 75.197,835.2091 74.818,836.0931 74.156,836.7541 C 73.526,837.4171 72.643,837.7631 71.698,837.7631 L 71.698,837.4171 C 72.549,837.4171 73.338,837.1001 73.936,836.5021 C 74.503,835.9041 74.85,835.1161 74.85,834.2641 C 74.85,832.5321 73.431,831.1441 71.698,831.1441 L 71.698,830.7971 z"
       style="fill:#000000;fill-opacity:1;fill-rule:nonzero;stroke:none"
       id="path2426" /><path
       d="M 38.382,782.194 C 43.425,782.194 49.224,784.149 53.101,785.63 C 61.864,788.939 65.299,790.642 67.569,791.619 C 74.092,794.455 75.196,796.535 75.196,803.691 L 75.196,817.78 C 75.196,825.503 73.368,828.528 66.907,831.492 C 65.583,832.09 64.07,832.846 55.718,835.904 C 46.135,839.433 41.344,840.285 38.382,840.285 C 35.421,840.285 30.63,839.433 21.08,835.904 C 12.727,832.846 11.215,832.09 9.859,831.492 C 3.428,828.528 1.6,825.503 1.6,817.78 L 1.6,803.691 C 1.6,796.535 2.673,794.455 9.228,791.619 C 11.498,790.642 14.934,788.939 23.696,785.63 C 27.541,784.149 33.309,782.194 38.382,782.194 z"
       style="fill:#ffffff;fill-opacity:1;fill-rule:nonzero;stroke:none"
       id="path2428" /><path
       d="M 38.382,784.3053 C 44.15,784.3053 50.643,786.8593 55.528,788.7813 C 63.282,791.8083 63.66,791.9653 67.41,793.6363 C 71.887,795.6533 73.116,797.7333 73.116,803.1213 L 73.116,811.3493 L 73.116,818.7573 C 73.116,825.7543 69.996,828.1183 65.457,829.9783 C 63.881,830.6713 63.219,831.0813 55.213,834.0443 C 48.626,836.5023 42.605,838.3303 38.382,838.3303 C 34.16,838.3303 28.172,836.5023 21.585,834.0443 C 13.578,831.0813 12.916,830.6713 11.308,829.9783 C 6.801,828.1183 3.649,825.7543 3.649,818.7573 L 3.649,811.3493 L 3.649,803.1213 C 3.649,797.7333 4.91,795.6533 9.385,793.6363 C 13.136,791.9653 13.515,791.8083 21.268,788.7813 C 26.154,786.8593 32.615,784.3053 38.382,784.3053 z"
       style="fill:#231f20;fill-opacity:1;fill-rule:nonzero;stroke:none"
       id="path2430" /><path
       d="M 10.9934,815.069 C 9.2914,814.944 8.7864,817.087 8.7864,819.072 C 8.7864,821.752 9.7014,823.958 10.8674,824.273 C 11.9084,824.556 12.5064,823.264 12.6324,821.845 L 15.6894,822.507 C 15.4374,826.606 13.2944,827.614 10.7104,827.173 C 7.3684,826.574 5.6034,822.919 5.6034,818.757 C 5.6034,814.566 8.0304,811.729 11.0564,811.854 C 13.7044,811.949 15.8154,814.439 15.9104,819.009 L 12.6644,818.536 C 12.7274,816.803 12.0644,815.164 10.9934,815.069 M 21.9314,815.858 L 21.7724,815.858 C 20.2604,815.984 19.7874,818.978 19.7564,821.153 C 19.7244,823.076 20.1344,826.763 21.4574,827.393 C 21.5524,827.425 21.6794,827.457 21.7724,827.489 C 23.0974,827.583 23.7264,824.273 23.7904,821.878 C 23.8854,818.757 23.4114,815.921 21.9314,815.858 M 21.7724,831.144 C 21.7094,831.113 21.6464,831.113 21.5524,831.082 C 17.5184,830.199 16.3204,825.63 16.3834,820.617 C 16.4144,815.196 18.6524,812.012 21.7724,811.854 L 22.0254,811.854 C 26.2804,811.854 27.6984,816.993 27.5404,822.477 C 27.3524,827.709 25.1454,831.712 21.7724,831.144 M 34.4124,816.803 L 34.2544,816.803 C 32.5844,816.961 32.0484,821.153 31.9854,823.8 C 31.8904,826.543 32.5844,830.294 34.0654,830.892 C 34.1284,830.923 34.1914,830.956 34.2544,830.956 C 35.8314,831.239 36.4294,826.984 36.5234,823.99 C 36.6184,820.207 36.0194,816.928 34.4124,816.803 M 34.2544,835.242 C 34.1284,835.242 34.0024,835.21 33.8764,835.178 C 30.2514,834.391 28.0764,829.159 28.2664,822.759 C 28.4544,816.047 30.8194,812.106 34.2544,811.854 L 34.5704,811.854 C 37.9724,811.823 40.9344,816.204 40.6824,824.368 C 40.4934,830.546 38.4124,835.872 34.2544,835.242 M 51.7774,812.075 L 60.3824,812.075 L 60.3824,815.7 L 55.4334,816.047 L 55.4334,819.829 L 59.4374,819.23 L 59.4374,822.919 L 55.4334,823.769 L 55.4334,827.016 L 60.3824,825.661 L 60.3824,828.938 L 51.7774,831.932 L 51.7774,812.075 z M 66.2764,821.373 C 66.2444,821.405 66.2124,821.405 66.1814,821.405 C 65.5514,821.531 64.5744,821.752 64.5744,821.752 L 64.5744,824.43 C 64.5744,824.43 65.2364,824.242 66.1814,823.958 L 66.2764,823.958 C 67.2854,823.674 67.7894,822.981 67.7894,822.035 C 67.7894,821.247 67.0654,821.215 66.2764,821.373 M 70.5004,813.998 C 70.5634,816.676 70.4364,818.158 68.7034,819.23 C 69.4594,819.42 70.3424,820.239 70.4694,821.562 C 70.6904,823.769 69.9954,825.565 66.6854,826.731 L 66.1814,826.889 L 61.4854,828.496 L 61.4854,812.075 L 64.5744,812.075 L 64.5744,818.442 C 64.5744,818.442 64.8574,818.442 65.4564,818.316 C 65.7094,818.254 65.9614,818.19 66.1814,818.063 C 67.2534,817.528 67.7894,816.393 67.7894,814.376 C 67.7894,812.958 67.7584,812.075 68.3884,812.075 L 70.8784,812.075 L 70.8784,812.39 C 70.4364,812.39 70.4694,812.926 70.5004,813.998 M 45.7884,834.012 L 41.6604,835.431 L 41.6604,812.075 L 50.3904,812.075 L 50.3904,816.457 L 45.7884,816.803 L 45.7884,834.012 z"
       style="fill:#ffffff;fill-opacity:1;fill-rule:nonzero;stroke:none"
       id="path2432" /><path
       d="M 11.2458,801.7985 L 9.9218,810.5625 L 6.3918,810.5625 L 6.3918,797.1965 L 8.8188,796.3785 L 8.8188,805.1415 L 10.1418,795.9375 L 11.9708,795.2755 L 13.8928,804.4795 L 13.8928,794.6115 L 16.6668,793.6365 L 16.6668,810.5625 L 12.9478,810.5625 L 11.2458,801.7985 z M 21.8988,799.1525 L 23.3178,805.6775 L 24.3258,798.6475 L 21.8988,799.1525 z M 21.5528,810.5625 L 17.1718,793.5085 L 20.5438,792.3115 L 21.2678,795.6845 L 24.7988,794.7385 L 25.4598,790.6105 L 29.4328,789.2555 L 25.4928,810.5625 L 21.5528,810.5625 z M 51.7778,790.7675 L 60.3818,793.8245 L 60.3818,797.0715 L 55.4658,795.6525 L 55.4658,799.2455 L 59.4368,800.1285 L 59.4368,803.7535 L 55.4658,803.1865 L 55.4658,806.6225 L 60.3818,806.9685 L 60.3818,810.5935 L 51.7778,810.5935 L 51.7778,790.7675 z M 41.6288,805.5505 L 44.2448,805.7395 L 44.2448,788.2145 L 48.3098,789.5695 L 48.3098,806.0865 L 50.3908,806.2435 L 50.3908,810.5935 L 41.6288,810.5935 L 41.6288,805.5505 z M 66.1818,804.7635 C 66.0878,804.7635 66.0238,804.7315 65.9288,804.7315 C 65.1728,804.6375 64.5748,804.5115 64.5748,804.5115 L 64.5748,807.3165 C 64.5748,807.3165 65.1098,807.3785 66.1818,807.4425 L 66.2128,807.4425 C 67.0648,807.5055 67.7578,807.0635 67.7578,806.2435 C 67.7578,805.3615 67.0008,804.9205 66.1818,804.7635 M 70.4368,799.3715 C 70.4368,802.1775 69.6178,802.9345 68.5148,803.4065 C 69.4288,803.8495 70.5008,804.6065 70.5008,806.7475 C 70.5008,809.3965 68.8918,810.5935 66.2128,810.5935 L 61.4858,810.5935 L 61.4858,794.1405 L 64.5748,795.2425 L 64.5748,801.3265 C 64.5748,801.3265 64.9528,801.4205 65.4888,801.5165 C 65.7408,801.5775 65.9618,801.5775 66.1818,801.5165 C 67.0968,801.3265 67.7898,800.3495 67.8218,798.5835 L 67.8218,797.3555 C 67.8218,796.8515 67.9158,796.4415 68.7358,796.7245 L 70.8158,797.3865 L 70.8158,797.8275 C 70.4048,797.7005 70.4368,798.7415 70.4368,799.3715 M 33.5298,804.4145 C 33.4668,805.5825 34.3178,806.3705 35.1368,806.2765 C 35.7358,806.2125 36.0828,805.8655 36.3338,805.2365 C 36.4918,804.7955 36.4608,804.3845 36.4608,803.9435 L 40.3678,803.5655 C 40.7128,807.7885 38.9488,810.7205 35.2638,810.7825 C 32.3948,810.8465 29.8418,808.1665 29.9048,804.4145 C 30.0628,798.2695 37.2158,798.9325 37.2788,793.2575 C 37.3108,792.3745 36.8378,791.5245 35.9558,791.6185 C 35.4528,791.6815 34.7908,791.9655 34.5058,792.5005 C 34.2228,793.0045 34.0018,793.7615 33.9398,795.0225 L 30.1248,795.9045 C 30.0938,792.3115 31.3548,788.4665 35.1368,787.6475 C 38.8228,786.8275 42.1638,789.8215 41.3138,794.9905 C 40.3048,800.9155 33.6878,801.2645 33.5298,804.4145 z"
       style="fill:#00aaaf;fill-opacity:1;fill-rule:nonzero;stroke:none"
       id="path2434" /></g></svg>