<?xml version="1.0" encoding="UTF-8" standalone="no"?>
<svg
   xmlns:dc="http://purl.org/dc/elements/1.1/"
   xmlns:cc="http://creativecommons.org/ns#"
   xmlns:rdf="http://www.w3.org/1999/02/22-rdf-syntax-ns#"
   xmlns:svg="http://www.w3.org/2000/svg"
   xmlns="http://www.w3.org/2000/svg"
   xmlns:sodipodi="http://sodipodi.sourceforge.net/DTD/sodipodi-0.dtd"
   xmlns:inkscape="http://www.inkscape.org/namespaces/inkscape"
   viewBox="0 0 5069.4569 4002.5351"
   width="304.16751"
   height="240.15211"
   version="1.1"
   id="svg17"
   sodipodi:docname="Cooler-Master_logo_190212_black_wordmark.svg"
   inkscape:version="0.92.4 (5da689c313, 2019-01-14)">
  <metadata
     id="metadata23">
    <rdf:RDF>
      <cc:Work
         rdf:about="">
        <dc:format>image/svg+xml</dc:format>
        <dc:type
           rdf:resource="http://purl.org/dc/dcmitype/StillImage" />
        <dc:title></dc:title>
      </cc:Work>
    </rdf:RDF>
  </metadata>
  <defs
     id="defs21" />
  <sodipodi:namedview
     pagecolor="#ffffff"
     bordercolor="#666666"
     borderopacity="1"
     objecttolerance="10"
     gridtolerance="10"
     guidetolerance="10"
     inkscape:pageopacity="0"
     inkscape:pageshadow="2"
     inkscape:window-width="1920"
     inkscape:window-height="1017"
     id="namedview19"
     showgrid="false"
     inkscape:zoom="2"
     inkscape:cx="185.7683"
     inkscape:cy="127.89746"
     inkscape:window-x="-8"
     inkscape:window-y="176"
     inkscape:window-maximized="1"
     inkscape:current-layer="svg17" />
  <g
     id="Cooler-Master_x5F_logo_x5F_190212_x5F_black_x5F_wordmark"
     transform="translate(-332.458,-333.33076)">
    <title
       id="title10">Cooler Master logo</title>
    <rect
       style="fill:none"
       width="1931.4844"
       height="1666.6666"
       id="rect12"
       x="0"
       y="0" />
    <path
       d="m 637.10267,1828.1043 c -7.67965,-275.9058 86.22944,-534.4325 322.09299,-587.5667 153.82604,-34.6178 306.96694,97.335 339.76024,293.8987 l -214.6161,39.9971 c -15.2881,-75.8448 -58.6871,-123.9138 -122.03231,-106.1399 -98.2533,27.5758 -133.34699,161.9818 -129.93064,330.0487 3.36875,165.7689 42.3546,274.5687 138.51673,267.7622 63.15722,-4.4845 121.33502,-70.2231 131.57932,-160.9705 0,0 167.9175,-13.8699 206.0443,-17.2744 0,205.1474 -153.2931,392.2092 -334.73292,392.2092 -202.58046,-2e-4 -329.14219,-183.5884 -336.68161,-451.9644 z M 2124.0109,1584.6206 c -17.7263,-400.1314 80.1082,-772.6871 332.8607,-869.10377 263.2444,-100.40413 451.6978,263.46324 459.6797,722.89777 9.6066,558.4207 -158.125,841.6539 -409.6358,841.6539 -225.0817,0 -364.795,-286.2428 -382.9046,-695.4479 z m 250.0003,-25.9986 c 8.2362,244.5519 56.0959,423.0299 136.2971,415.2123 88.6797,-8.7598 135.5546,-223.6089 128.3747,-504.9723 -7.3777,-288.8812 -66.0647,-474.96753 -156.091,-421.7858 -63.7878,37.6727 -117.9449,233.5393 -108.5808,511.5458 z m -1027.0314,137.0298 c -12.2213,-347.8585 95.603,-639.6778 302.3088,-708.99447 230.9602,-77.61011 398.4137,215.77957 405.5794,593.07177 8.1102,430.0459 -121.7277,700.3062 -369.6843,700.3062 -202.7895,0 -326.0992,-241.9731 -338.2039,-584.3835 z m 213.6742,-37.5323 c 6.1688,211.1071 52.2038,366.0608 129.6998,359.5539 82.4776,-6.9231 131.6626,-182.2632 126.3881,-410.911 -5.3909,-233.0515 -63.2072,-391.7452 -146.6936,-364.2027 -55.97,18.4927 -116.2936,176.4203 -109.3944,415.5598 z M 3303.6147,736.50737 3019.1012,641.00666 V 2263.3651 h 648.7635 v -291.6932 l -364.25,-26.472 z m 1657.1496,1147.03173 124.8777,379.826 h -201.4313 l -111.2855,-359.2185 -79.4805,-9.1547 v 368.3732 H 4456.9314 V 1118.1106 l 379.0721,127.4231 c 152.965,51.3689 242.6677,212.9436 242.6677,384.9482 0,157.9632 -62.0769,228.8811 -117.9069,253.0572 z m -65.1462,-291.5887 c 0,-72.997 -37.3585,-126.1669 -90.7944,-140.3272 l -111.379,-29.529 v 248.3727 l 111.379,20.8051 c 53.4359,9.9564 90.7944,-26.2769 90.7944,-99.3217 z m -1876.5169,1129.6288 198.0174,-13.2062 0.1595,1233.83 270.8525,-90.272 V 2689.0549 l 177.8501,-14.6266 V 2383.946 h -646.8818 z m 729.7543,1043.5064 625.7126,-208.5069 v -242.6128 l -367.3618,96.5119 v -254.9034 l 323.7773,-64.5061 v -247.4214 l -323.7773,41.7958 v -231.284 l 367.3618,-25.7891 V 2383.946 h -625.7126 z m 1213.1177,-781.9583 123.6688,336.7648 -202.2663,67.3635 -109.9871,-320.4542 -79.6204,17.4125 v 366.1441 l -236.8368,78.852 V 2383.946 h 379.8618 c 153.5005,0 243.667,132.1599 243.667,305.0852 0,158.8339 -62.403,251.0563 -118.487,294.0961 z m -65.4724,-271.2 c 0,-73.4061 -37.4516,-114.1789 -91.0733,-110.4033 l -111.6593,7.8509 v 249.3863 l 111.6593,-16.5321 c 53.6222,-7.9343 91.0733,-56.9193 91.0733,-130.3018 z m -2996.8985,-327.9813 267.9716,1430.1605 -249.3624,-86.9742 -33.2001,-215.1251 -224.5605,-63.9498 -28.6798,181.1141 -205.4161,-70.8153 214.3138,-1174.4102 z m -53.9002,849.0194 -79.5276,-483.8889 -73.4181,449.0974 z M 982.7652,2866.7525 888.72761,2383.946 H 658.95207 v 909.134 l 160.50647,56.1081 v -574.822 l 121.74183,616.5722 69.11913,24.0003 156.8238,-589.401 v 643.7318 l 210.5621,73.0568 V 2383.946 h -273.0365 z m 4419.1506,-983.5989 v 973.3309 c 0,491.3807 -74.6269,634.6011 -525.1635,830.8744 -156.3574,67.6421 -392.5233,184.8777 -995.8867,413.2923 -265.6235,100.6705 -665.1173,235.2142 -1014.1393,235.2142 -347.2517,0 -746.6409,-134.5437 -1013.1848,-235.2142 C 1250.9438,3872.2366 1014.8256,3755.001 858.57287,3687.3589 408.01225,3491.0853 332.458,3347.8652 332.458,2856.4845 v -973.3309 c 0,-529.5981 126.72592,-739.7178 570.38487,-942.90482 91.12084,-41.63379 196.16883,-93.75689 770.97893,-304.75919 658.9505,-242.19433 988.8851,-302.15883 1192.9047,-302.15883 204.9285,0 534.8393,59.9645 1194.661,302.15883 574.8338,211.0023 679.8697,263.12527 771.0382,304.75919 443.6586,203.18702 569.4901,413.30672 569.4901,942.90482 z m -141.4904,-65.1105 c 0,-482.6899 -217.0215,-645.171 -527.8328,-774.4879 C 4623.1647,997.57726 4577.9528,968.06013 4026.7004,763.96901 3573.5133,595.60919 3158.5007,469.73248 2866.7265,469.73248 c -289.9827,0 -704.962,125.87671 -1159.0769,294.23653 -550.3817,204.09112 -595.5817,233.60825 -705.8113,279.58619 -310.00985,129.3169 -527.01933,291.7979 -527.01933,774.4879 v 1075.7406 c 0,373.2763 85.95115,515.7186 394.16235,653.7453 257.78188,114.6213 283.90898,126.807 817.01618,336.0222 336.8219,131.9625 785.6863,306.4913 1180.7288,306.4913 396.8339,0 844.8158,-174.5288 1181.6974,-306.4913 533.9186,-209.2152 560.0097,-221.4009 817.8061,-336.0222 308.2323,-138.0267 394.1956,-280.469 394.1956,-653.7453 z M 2434.023,2814.42 c -4.0776,-81.0478 54.8639,-136.1352 112.7729,-129.9663 42.8875,5.1698 98.9267,50.9147 91.1778,161.2488 l 282.5744,27.6378 c 15.0193,-285.4888 -105.3643,-500.338 -364.3668,-504.7631 -200.7461,-2.6027 -394.6381,170.2274 -388.4929,430.6835 10.0731,466.5434 518.7495,392.1638 522.3752,779.3675 0.4163,58.0589 -32.0508,116.8838 -91.7014,110.8908 -75.1144,-14.277 -131.6174,-66.3761 -136.6585,-225.8619 l -264.3579,-64.8083 c -2.6481,243.81 85.3587,501.3826 343.4095,557.2477 250.7542,55.0161 480.7153,-147.4382 426.2702,-495.5273 C 2903.0286,3055.777 2445.545,3031.5557 2434.023,2814.42 Z m 1315.0182,-551.0549 h 625.5269 v -244.7495 l -367.3618,-24.9636 v -249.7907 l 304.7973,41.0414 v -248.4916 l -304.7973,-62.5317 V 1239.724 l 367.3618,97.4873 V 1089.9067 L 3748.8555,882.24934 Z"
       id="path14"
       inkscape:connector-curvature="0"
       style="stroke-width:4.00251389" />
  </g>
</svg>
